<svg version="1.1" id="Layer_1" xmlns="http://www.w3.org/2000/svg" xmlns:xlink="http://www.w3.org/1999/xlink" x="0px" y="0px"
	 width="100%" viewBox="0 0 220 255" enable-background="new 0 0 220 255" xml:space="preserve">
<path fill="#F7F8FB" opacity="1.000000" stroke="none" 
	d="
M114.000000,256.000000 
	C76.000000,256.000000 38.500004,256.000000 1.000005,256.000000 
	C1.000003,171.000000 1.000003,86.000015 1.000002,1.000016 
	C74.333321,1.000011 147.666641,1.000011 220.999969,1.000005 
	C220.999985,85.999985 220.999985,170.999969 221.000000,255.999969 
	C185.500000,256.000000 150.000000,256.000000 114.000000,256.000000 
M203.065536,120.267014 
	C201.309189,100.043831 199.599869,79.816383 197.767456,59.600094 
	C197.227585,53.643940 195.176422,51.958630 188.989777,51.928680 
	C179.705017,51.883732 170.419876,51.916981 161.171768,51.916981 
	C159.566345,21.810823 137.339127,4.361747 114.640434,3.047218 
	C92.811821,1.783078 65.458115,16.368868 62.577400,51.916809 
	C53.649071,51.916809 44.686092,51.910904 35.723118,51.918690 
	C28.614656,51.924862 26.820572,53.498123 26.176613,60.384129 
	C25.448536,68.169609 24.762264,75.959045 24.072607,83.748062 
	C20.140068,128.162445 16.196548,172.575867 12.298940,216.993317 
	C11.715972,223.636841 13.078419,229.922745 16.673042,235.588348 
	C24.526125,247.965836 36.325451,252.948166 50.468323,252.978745 
	C91.278419,253.066986 132.088837,253.021118 172.899094,252.985397 
	C175.721008,252.982925 178.566147,252.800613 181.360596,252.413788 
	C199.508270,249.901733 213.294067,234.184235 211.823975,217.629684 
	C208.968887,185.478546 206.040298,153.333923 203.065536,120.267014 
z"/>
<path fill="#060606" opacity="1.000000" stroke="none" 
	d="
M203.103851,120.726807 
	C206.040298,153.333923 208.968887,185.478546 211.823975,217.629684 
	C213.294067,234.184235 199.508270,249.901733 181.360596,252.413788 
	C178.566147,252.800613 175.721008,252.982925 172.899094,252.985397 
	C132.088837,253.021118 91.278419,253.066986 50.468323,252.978745 
	C36.325451,252.948166 24.526125,247.965836 16.673042,235.588348 
	C13.078419,229.922745 11.715972,223.636841 12.298940,216.993317 
	C16.196548,172.575867 20.140068,128.162445 24.072607,83.748062 
	C24.762264,75.959045 25.448536,68.169609 26.176613,60.384129 
	C26.820572,53.498123 28.614656,51.924862 35.723118,51.918690 
	C44.686092,51.910904 53.649071,51.916809 62.577400,51.916809 
	C65.458115,16.368868 92.811821,1.783078 114.640434,3.047218 
	C137.339127,4.361747 159.566345,21.810823 161.171768,51.916981 
	C170.419876,51.916981 179.705017,51.883732 188.989777,51.928680 
	C195.176422,51.958630 197.227585,53.643940 197.767456,59.600094 
	C199.599869,79.816383 201.309189,100.043831 203.103851,120.726807 
M186.935104,79.675110 
	C186.478256,74.731041 186.021393,69.786964 185.541885,64.597717 
	C177.345261,64.597717 169.397491,64.597717 161.251038,64.597717 
	C161.174316,65.667465 161.026642,66.807892 161.021759,67.948921 
	C160.996796,73.781784 161.099625,79.616737 160.975250,85.447067 
	C160.894180,89.247070 159.019821,91.962471 155.010971,92.092964 
	C151.072235,92.221184 148.916061,89.898041 148.669373,85.948441 
	C148.544998,83.957458 148.493134,81.959496 148.483322,79.964317 
	C148.458176,74.851936 148.474930,69.739342 148.474930,64.598854 
	C123.885414,64.598854 99.974800,64.598854 75.525070,64.598854 
	C75.525070,66.830223 75.548485,68.787300 75.520569,70.743637 
	C75.444557,76.069763 75.537292,81.408066 75.189453,86.717064 
	C74.965034,90.142242 72.703995,92.108459 69.207756,92.102379 
	C65.688339,92.096252 63.672722,90.049393 63.172501,86.662094 
	C62.906837,84.863121 63.002140,83.005722 62.996120,81.174492 
	C62.977814,75.604973 62.989483,70.035355 62.989483,64.318611 
	C55.623695,64.318611 48.952518,64.529449 42.303967,64.232956 
	C38.784458,64.076012 38.167645,65.645615 37.964428,68.600517 
	C37.347649,77.568802 36.533115,86.524155 35.736568,95.479294 
	C32.137619,135.940338 28.491653,176.397232 24.924109,216.861038 
	C23.970259,227.679764 29.689024,236.104126 40.177216,238.917221 
	C44.133907,239.978485 48.371937,240.399734 52.483612,240.410812 
	C92.147484,240.517731 131.811768,240.484711 171.475906,240.454178 
	C174.300140,240.452011 177.148972,240.337524 179.943726,239.959747 
	C189.308548,238.693878 201.055374,230.458893 199.148361,216.890518 
	C198.385086,211.459930 198.266144,205.941101 197.775650,200.469467 
	C194.193726,160.512329 190.591843,120.556992 186.935104,79.675110 
M75.741997,50.539452 
	C77.290611,50.999447 78.837433,51.852737 80.388115,51.859802 
	C100.214058,51.950199 120.040558,51.919441 139.866913,51.919445 
	C142.646622,51.919445 145.426346,51.919445 148.178589,51.919445 
	C148.883804,34.673725 134.973511,15.876446 112.417686,15.517027 
	C92.799164,15.204412 76.998039,30.063581 75.741997,50.539452 
z"/>
<path fill="#F7F8FB" opacity="1.000000" stroke="none" 
	d="
M186.965698,80.138092 
	C190.591843,120.556992 194.193726,160.512329 197.775650,200.469467 
	C198.266144,205.941101 198.385086,211.459930 199.148361,216.890518 
	C201.055374,230.458893 189.308548,238.693878 179.943726,239.959747 
	C177.148972,240.337524 174.300140,240.452011 171.475906,240.454178 
	C131.811768,240.484711 92.147484,240.517731 52.483612,240.410812 
	C48.371937,240.399734 44.133907,239.978485 40.177216,238.917221 
	C29.689024,236.104126 23.970259,227.679764 24.924109,216.861038 
	C28.491653,176.397232 32.137619,135.940338 35.736568,95.479294 
	C36.533115,86.524155 37.347649,77.568802 37.964428,68.600517 
	C38.167645,65.645615 38.784458,64.076012 42.303967,64.232956 
	C48.952518,64.529449 55.623695,64.318611 62.989483,64.318611 
	C62.989483,70.035355 62.977814,75.604973 62.996120,81.174492 
	C63.002140,83.005722 62.906837,84.863121 63.172501,86.662094 
	C63.672722,90.049393 65.688339,92.096252 69.207756,92.102379 
	C72.703995,92.108459 74.965034,90.142242 75.189453,86.717064 
	C75.537292,81.408066 75.444557,76.069763 75.520569,70.743637 
	C75.548485,68.787300 75.525070,66.830223 75.525070,64.598854 
	C99.974800,64.598854 123.885414,64.598854 148.474930,64.598854 
	C148.474930,69.739342 148.458176,74.851936 148.483322,79.964317 
	C148.493134,81.959496 148.544998,83.957458 148.669373,85.948441 
	C148.916061,89.898041 151.072235,92.221184 155.010971,92.092964 
	C159.019821,91.962471 160.894180,89.247070 160.975250,85.447067 
	C161.099625,79.616737 160.996796,73.781784 161.021759,67.948921 
	C161.026642,66.807892 161.174316,65.667465 161.251038,64.597717 
	C169.397491,64.597717 177.345261,64.597717 185.541885,64.597717 
	C186.021393,69.786964 186.478256,74.731041 186.965698,80.138092 
z"/>
<path fill="#F6F7FA" opacity="1.000000" stroke="none" 
	d="
M75.735245,50.077419 
	C76.998039,30.063581 92.799164,15.204412 112.417686,15.517027 
	C134.973511,15.876446 148.883804,34.673725 148.178589,51.919445 
	C145.426346,51.919445 142.646622,51.919445 139.866913,51.919445 
	C120.040558,51.919441 100.214058,51.950199 80.388115,51.859802 
	C78.837433,51.852737 77.290611,50.999447 75.735245,50.077419 
z"/>
</svg>