<svg version="1.1" id="Layer_1" xmlns="http://www.w3.org/2000/svg" xmlns:xlink="http://www.w3.org/1999/xlink" x="0px" y="0px"
	 width="100%" viewBox="0 0 272 240" enable-background="new 0 0 272 240" xml:space="preserve">
<path fill="#000000" opacity="1.000000" stroke="none" 
	d="
M21.467606,241.000000 
	C14.998267,233.837311 10.480095,226.141449 10.600595,216.302643 
	C10.741716,204.780121 15.372633,195.669296 24.658876,189.061523 
	C27.577543,186.984695 28.881788,184.778351 28.710567,181.217728 
	C28.470844,176.232590 28.674921,171.226791 28.658766,166.229919 
	C28.649910,163.490540 29.228504,161.001205 32.504631,160.895294 
	C35.666771,160.793045 36.892105,163.240875 36.996262,165.874298 
	C37.212170,171.333298 37.061409,176.806808 37.061409,182.778122 
	C41.094505,182.778122 44.527740,182.843491 47.957245,182.758438 
	C50.962574,182.683914 50.653328,180.349380 50.658569,178.384048 
	C50.688316,167.224289 50.663460,156.064392 50.687855,144.904617 
	C50.702900,138.022827 51.935223,136.774750 58.868156,136.765030 
	C80.521553,136.734695 102.175018,136.725449 123.828423,136.744553 
	C130.995926,136.750885 132.238998,138.021225 132.252258,145.175644 
	C132.272003,155.835739 132.228943,166.496017 132.272675,177.155975 
	C132.279999,178.940750 131.859879,180.810577 132.962753,182.764847 
	C136.164917,182.764847 139.457031,182.771362 142.749115,182.763031 
	C146.115524,182.754501 145.711517,180.238800 145.717819,178.131287 
	C145.750702,167.138123 145.712372,156.144775 145.732483,145.151550 
	C145.745529,138.020905 147.001999,136.760132 154.200165,136.755585 
	C181.017105,136.738647 207.834808,136.647644 234.650269,136.848007 
	C239.394791,136.883453 241.166336,135.579758 240.933868,130.687485 
	C240.586456,123.375931 240.805023,116.033531 240.915054,108.706245 
	C240.956390,105.953827 241.473648,103.137070 244.977600,102.827347 
	C247.849213,102.573509 249.293747,104.289192 249.302109,107.088455 
	C249.335434,118.247986 249.311707,129.407684 249.324966,140.567291 
	C249.329453,144.340195 247.055939,145.356964 243.777176,145.344635 
	C236.281921,145.316452 228.786438,145.347824 221.291046,145.348648 
	C200.970123,145.350876 180.648361,145.447815 160.328964,145.272003 
	C155.971344,145.234283 154.062500,146.179794 154.235855,151.057816 
	C154.602402,161.371826 154.374649,171.708008 154.329117,182.034821 
	C154.318466,184.450394 154.447556,186.567184 156.872467,188.047043 
	C174.157196,198.595535 178.183456,223.866791 162.780151,239.530899 
	C162.554352,239.760513 162.435196,240.094971 162.133133,240.690247 
	C156.645065,241.000000 151.290146,241.000000 145.663849,240.705170 
	C147.049759,239.650757 148.740967,238.956787 150.358810,238.120880 
	C160.525757,232.868011 165.797394,221.348816 163.100708,210.354630 
	C160.373795,199.237198 150.450668,191.350189 139.174484,191.337814 
	C127.326546,191.324814 117.608963,199.161713 114.756416,211.030167 
	C112.226440,221.556534 117.777763,233.044769 127.789169,238.250336 
	C129.528793,239.154877 131.693848,239.279602 133.000000,241.000000 
	C127.645073,241.000000 122.290138,241.000000 116.289047,240.714401 
	C100.341408,220.115692 101.998604,204.999191 121.550514,187.717178 
	C123.452812,186.035736 123.662445,184.128708 123.657707,181.919464 
	C123.635216,171.429794 123.496147,160.936768 123.723351,150.451996 
	C123.808617,146.517136 122.562454,145.245895 118.596909,145.283463 
	C100.449684,145.455368 82.299202,145.435562 64.151550,145.284882 
	C60.434002,145.254013 59.207066,146.482880 59.275700,150.181183 
	C59.467224,160.500809 59.504150,170.830368 59.252060,181.147461 
	C59.159824,184.922226 60.509220,187.065186 63.495720,189.330963 
	C74.702133,197.833084 79.015953,209.159348 76.459290,223.146896 
	C75.174240,230.177368 70.893723,235.444931 67.000000,241.000000 
	C61.645069,241.000000 56.290142,241.000000 50.642197,240.689056 
	C51.712170,239.779968 53.094372,239.221786 54.435081,238.577316 
	C64.549805,233.715057 70.533691,222.132004 68.308929,211.757584 
	C65.763039,199.885696 56.057556,191.579697 44.453186,191.341721 
	C32.955906,191.105957 23.044201,198.522537 20.022190,209.622620 
	C16.943514,220.930862 21.878902,232.312149 32.318577,237.965347 
	C34.206539,238.987701 36.105900,239.988983 38.000000,241.000000 
	C32.645069,241.000000 27.290140,241.000000 21.467606,241.000000 
z"/>
<path fill="#000000" opacity="1.000000" stroke="none" 
	d="
M52.277016,121.695892 
	C50.399738,119.549301 50.702755,117.319763 50.698883,115.176376 
	C50.679008,104.179321 50.709957,93.182129 50.665554,82.185219 
	C50.659031,80.570877 51.110092,78.854431 49.970310,77.178406 
	C46.085522,77.178406 42.130978,77.178406 38.112953,77.178406 
	C36.500053,79.070808 37.185410,81.328133 37.180817,83.385696 
	C37.135098,103.880127 37.219246,124.374924 37.144260,144.869171 
	C37.130936,148.511658 38.138790,153.788818 32.699024,153.823227 
	C27.309336,153.857346 28.711029,148.649765 28.697512,145.242249 
	C28.609608,123.081787 28.589485,100.920448 28.717163,78.760376 
	C28.737446,75.240013 27.688541,73.028038 24.697277,70.961433 
	C11.443722,61.804836 6.874928,44.244137 13.637246,29.668940 
	C20.284168,15.342463 36.560806,7.650209 51.964787,11.555540 
	C67.642769,15.530338 78.445274,30.073387 77.206314,46.092022 
	C76.407623,56.418411 71.798714,64.975700 63.204510,70.908615 
	C60.181698,72.995384 59.210785,75.254341 59.271782,78.747292 
	C59.455048,89.241371 59.423965,99.741531 59.299862,110.237228 
	C59.262379,113.407051 60.268616,114.703781 63.588978,114.685631 
	C82.083496,114.584541 100.579254,114.583191 119.073654,114.697990 
	C122.579346,114.719757 123.744080,113.393250 123.697220,109.981346 
	C123.557671,99.819298 123.439888,89.647697 123.750793,79.493210 
	C123.877663,75.349632 122.489418,72.893616 119.177078,70.455177 
	C108.418129,62.534786 104.050957,51.468544 106.108757,38.460629 
	C108.248146,24.936975 116.477142,15.910892 129.544403,11.849574 
	C144.869476,7.086522 161.540588,14.510591 168.778580,28.867859 
	C176.059158,43.309631 172.151718,60.734428 158.951736,70.390495 
	C155.380188,73.003159 154.143234,75.663269 154.259338,79.900482 
	C154.528488,89.723892 154.467896,99.561783 154.289413,109.389229 
	C154.222260,113.087029 155.049515,114.778320 159.252838,114.731903 
	C177.412445,114.531364 195.576096,114.583168 213.737030,114.714798 
	C217.383911,114.741234 218.772888,113.559906 218.715820,109.823936 
	C218.550415,98.996140 218.524963,88.160759 218.763138,77.335365 
	C218.840393,73.823807 216.767258,72.451279 214.466675,70.701073 
	C204.047974,62.774872 199.340393,52.089108 201.181000,39.226421 
	C203.176849,25.278872 211.367920,15.844560 224.944992,11.817230 
	C240.399338,7.233054 256.856049,14.532049 263.883362,28.565813 
	C271.256409,43.290077 267.450592,60.286469 253.944031,70.558998 
	C250.444351,73.220718 248.941040,75.860092 249.287125,80.106270 
	C249.583862,83.746925 249.315109,87.432404 249.327423,91.097961 
	C249.335800,93.597008 248.247253,95.462807 245.748535,95.743469 
	C242.913452,96.061935 241.281708,94.082825 241.131332,91.555809 
	C240.856506,86.937401 241.053162,82.290939 241.053162,77.373497 
	C236.283249,77.373497 232.195831,77.373497 227.991913,77.373497 
	C226.771896,78.910660 227.361130,80.814102 227.352158,82.575653 
	C227.294434,93.905693 227.253586,105.236710 227.349243,116.566208 
	C227.388397,121.204369 225.264786,123.276321 220.706863,123.270691 
	C197.879654,123.242531 175.052353,123.240341 152.225159,123.272720 
	C147.505295,123.279411 145.730865,120.804268 145.750748,116.364502 
	C145.800003,105.367706 145.777573,94.370346 145.721008,83.373543 
	C145.710968,81.422035 146.153763,79.390800 145.092926,77.330399 
	C141.030807,77.330399 136.945023,77.330399 132.239532,77.330399 
	C132.239532,87.632935 132.201889,97.750214 132.248077,107.867104 
	C132.322800,124.230377 133.293854,123.362801 116.811035,123.307129 
	C97.649620,123.242409 78.487885,123.277237 59.326317,123.252098 
	C57.015675,123.249062 54.624485,123.573967 52.277016,121.695892 
M61.780766,26.719503 
	C52.326565,18.063923 40.890800,16.654470 30.694416,22.888124 
	C21.474718,28.524673 16.931055,40.336884 20.012447,50.658169 
	C22.937410,60.455490 31.327375,67.564613 41.202492,68.613281 
	C51.029800,69.656860 60.934914,64.343430 65.671394,55.487373 
	C70.708748,46.068733 69.514969,36.161266 61.780766,26.719503 
M145.177002,67.748154 
	C146.442719,67.345825 147.758560,67.057014 148.966385,66.523598 
	C161.077805,61.174782 166.941574,46.931667 162.082367,34.753677 
	C157.245117,22.630802 143.569763,16.225019 131.258606,20.315271 
	C119.008240,24.385326 111.686249,37.598530 114.973999,49.702324 
	C118.631691,63.168049 131.111206,70.903961 145.177002,67.748154 
M233.588333,68.659462 
	C245.516541,68.315491 254.555405,61.662212 257.918793,50.750435 
	C260.992035,40.779949 256.997253,29.660437 248.131119,23.506403 
	C239.274414,17.358908 227.605804,17.716803 218.768951,24.406996 
	C211.394424,29.990099 207.743622,40.454823 210.067856,49.347847 
	C213.015015,60.624325 220.616501,67.096214 233.588333,68.659462 
z"/>
</svg>