<svg xmlns="http://www.w3.org/2000/svg" xmlns:xlink="http://www.w3.org/1999/xlink" version="1.1" width="256" height="256" viewBox="0 0 256 256" xml:space="preserve">

<defs>
</defs>
<g style="stroke: none; stroke-width: 0; stroke-dasharray: none; stroke-linecap: butt; stroke-linejoin: miter; stroke-miterlimit: 10; fill: none; fill-rule: nonzero; opacity: 1;" transform="translate(1.4065934065934016 1.4065934065934016) scale(2.81 2.81)" >
	<path d="M 78.97 57.433 c -3.421 0 -6.203 -2.783 -6.203 -6.204 c 0 -3.42 2.782 -6.203 6.203 -6.203 s 6.204 2.783 6.204 6.203 C 85.174 54.649 82.391 57.433 78.97 57.433 z M 78.97 47.025 c -2.317 0 -4.203 1.886 -4.203 4.203 c 0 2.318 1.886 4.204 4.203 4.204 c 2.318 0 4.204 -1.886 4.204 -4.204 C 83.174 48.911 81.288 47.025 78.97 47.025 z" style="stroke: none; stroke-width: 1; stroke-dasharray: none; stroke-linecap: butt; stroke-linejoin: miter; stroke-miterlimit: 10; fill: rgb(0,0,0); fill-rule: nonzero; opacity: 1;" transform=" matrix(1 0 0 1 0 0) " stroke-linecap="round" />
	<path d="M 11.682 57.433 c -3.421 0 -6.204 -2.783 -6.204 -6.204 c 0 -3.42 2.783 -6.203 6.204 -6.203 s 6.204 2.783 6.204 6.203 C 17.886 54.649 15.103 57.433 11.682 57.433 z M 11.682 47.025 c -2.318 0 -4.204 1.886 -4.204 4.203 c 0 2.318 1.886 4.204 4.204 4.204 c 2.318 0 4.204 -1.886 4.204 -4.204 C 15.886 48.911 14 47.025 11.682 47.025 z" style="stroke: none; stroke-width: 1; stroke-dasharray: none; stroke-linecap: butt; stroke-linejoin: miter; stroke-miterlimit: 10; fill: rgb(0,0,0); fill-rule: nonzero; opacity: 1;" transform=" matrix(1 0 0 1 0 0) " stroke-linecap="round" />
	<path d="M 6.958 54.414 c -0.137 0 -0.276 -0.028 -0.409 -0.088 l -3.914 -1.759 c -1.792 -0.805 -2.837 -2.656 -2.603 -4.605 l 0.736 -6.115 c 0.215 -1.786 1.734 -3.133 3.533 -3.133 h 3.905 l 4.948 -4.572 c 1.099 -1.016 2.527 -1.575 4.023 -1.575 h 38.987 c 2.494 0 4.952 0.662 7.108 1.914 l 8.098 4.698 l 11.016 1.918 C 86.798 41.865 90 45.673 90 50.15 v 0.338 c 0 1.697 -1.217 3.125 -2.894 3.394 l -3.257 0.52 c -0.545 0.091 -1.058 -0.285 -1.145 -0.83 s 0.284 -1.058 0.83 -1.145 l 3.256 -0.52 c 0.7 -0.112 1.209 -0.709 1.209 -1.419 V 50.15 c 0 -3.503 -2.505 -6.482 -5.957 -7.083 l -11.191 -1.949 c -0.116 -0.021 -0.228 -0.061 -0.33 -0.121 L 62.27 36.21 c -1.852 -1.075 -3.963 -1.643 -6.104 -1.643 H 17.178 c -0.991 0 -1.938 0.371 -2.666 1.043 l -5.236 4.838 c -0.185 0.171 -0.427 0.266 -0.679 0.266 H 4.301 c -0.788 0 -1.453 0.59 -1.547 1.372 L 2.018 48.2 c -0.129 1.077 0.448 2.099 1.437 2.543 l 3.914 1.759 c 0.504 0.227 0.729 0.818 0.502 1.322 C 7.704 54.194 7.339 54.414 6.958 54.414 z" style="stroke: none; stroke-width: 1; stroke-dasharray: none; stroke-linecap: butt; stroke-linejoin: miter; stroke-miterlimit: 10; fill: rgb(0,0,0); fill-rule: nonzero; opacity: 1;" transform=" matrix(1 0 0 1 0 0) " stroke-linecap="round" />
	<path d="M 74.247 54.414 H 16.406 c -0.552 0 -1 -0.447 -1 -1 s 0.448 -1 1 -1 h 57.841 c 0.553 0 1 0.447 1 1 S 74.8 54.414 74.247 54.414 z" style="stroke: none; stroke-width: 1; stroke-dasharray: none; stroke-linecap: butt; stroke-linejoin: miter; stroke-miterlimit: 10; fill: rgb(0,0,0); fill-rule: nonzero; opacity: 1;" transform=" matrix(1 0 0 1 0 0) " stroke-linecap="round" />
	<path d="M 64.985 42.754 H 22.889 c -1.486 0 -2.833 -0.693 -3.697 -1.902 s -1.083 -2.708 -0.601 -4.114 l 0.949 -2.771 c 0.179 -0.522 0.748 -0.803 1.27 -0.622 c 0.522 0.179 0.801 0.748 0.622 1.27 l -0.949 2.771 c -0.27 0.787 -0.146 1.626 0.337 2.303 s 1.238 1.065 2.07 1.065 h 42.097 c 1.39 0 2.74 -0.28 4.015 -0.833 l 1.625 -0.706 c 0.508 -0.22 1.097 0.013 1.315 0.52 c 0.22 0.506 -0.013 1.096 -0.519 1.315 l -1.626 0.706 C 68.269 42.418 66.65 42.754 64.985 42.754 z" style="stroke: none; stroke-width: 1; stroke-dasharray: none; stroke-linecap: butt; stroke-linejoin: miter; stroke-miterlimit: 10; fill: rgb(0,0,0); fill-rule: nonzero; opacity: 1;" transform=" matrix(1 0 0 1 0 0) " stroke-linecap="round" />
	<path d="M 78.97 52.229 c -0.13 0 -0.26 -0.029 -0.38 -0.08 c -0.12 -0.05 -0.23 -0.119 -0.33 -0.22 c -0.09 -0.09 -0.16 -0.2 -0.21 -0.32 c -0.06 -0.119 -0.08 -0.25 -0.08 -0.38 c 0 -0.26 0.11 -0.52 0.29 -0.71 c 0.37 -0.37 1.05 -0.37 1.42 0 c 0.18 0.19 0.29 0.45 0.29 0.71 c 0 0.13 -0.03 0.261 -0.08 0.38 c -0.05 0.12 -0.12 0.23 -0.21 0.32 c -0.1 0.101 -0.21 0.17 -0.33 0.22 C 79.229 52.2 79.1 52.229 78.97 52.229 z" style="stroke: none; stroke-width: 1; stroke-dasharray: none; stroke-linecap: butt; stroke-linejoin: miter; stroke-miterlimit: 10; fill: rgb(0,0,0); fill-rule: nonzero; opacity: 1;" transform=" matrix(1 0 0 1 0 0) " stroke-linecap="round" />
	<path d="M 11.68 52.229 c -0.26 0 -0.52 -0.109 -0.71 -0.3 c -0.09 -0.09 -0.16 -0.2 -0.21 -0.32 c -0.05 -0.119 -0.08 -0.25 -0.08 -0.38 s 0.03 -0.26 0.08 -0.38 c 0.05 -0.13 0.12 -0.24 0.21 -0.33 c 0.38 -0.37 1.05 -0.37 1.42 0 c 0.09 0.09 0.16 0.2 0.22 0.33 c 0.05 0.12 0.07 0.25 0.07 0.38 c 0 0.271 -0.1 0.521 -0.29 0.7 C 12.2 52.12 11.95 52.229 11.68 52.229 z" style="stroke: none; stroke-width: 1; stroke-dasharray: none; stroke-linecap: butt; stroke-linejoin: miter; stroke-miterlimit: 10; fill: rgb(0,0,0); fill-rule: nonzero; opacity: 1;" transform=" matrix(1 0 0 1 0 0) " stroke-linecap="round" />
	<path d="M 34.308 42.754 c -0.552 0 -1 -0.448 -1 -1 v -8.187 c 0 -0.552 0.448 -1 1 -1 s 1 0.448 1 1 v 8.187 C 35.308 42.307 34.86 42.754 34.308 42.754 z" style="stroke: none; stroke-width: 1; stroke-dasharray: none; stroke-linecap: butt; stroke-linejoin: miter; stroke-miterlimit: 10; fill: rgb(0,0,0); fill-rule: nonzero; opacity: 1;" transform=" matrix(1 0 0 1 0 0) " stroke-linecap="round" />
	<path d="M 49.846 42.754 c -0.553 0 -1 -0.448 -1 -1 v -8.187 c 0 -0.552 0.447 -1 1 -1 s 1 0.448 1 1 v 8.187 C 50.846 42.307 50.398 42.754 49.846 42.754 z" style="stroke: none; stroke-width: 1; stroke-dasharray: none; stroke-linecap: butt; stroke-linejoin: miter; stroke-miterlimit: 10; fill: rgb(0,0,0); fill-rule: nonzero; opacity: 1;" transform=" matrix(1 0 0 1 0 0) " stroke-linecap="round" />
</g>
</svg>