<svg version="1.1" id="Layer_1" xmlns="http://www.w3.org/2000/svg" xmlns:xlink="http://www.w3.org/1999/xlink" x="0px" y="0px"
	 width="100%" viewBox="0 0 208 192" enable-background="new 0 0 208 192" xml:space="preserve">
<path fill="#000000" opacity="1.000000" stroke="none" 
	d="
M19.468658,193.000000 
	C18.718660,192.824036 18.458456,192.587540 18.152927,192.480850 
	C6.663387,188.469421 6.622346,188.470871 6.667439,176.117462 
	C6.702594,166.486923 5.912007,156.788605 8.726676,147.354218 
	C13.275983,132.105576 21.810015,119.815872 35.386868,111.201607 
	C37.619904,109.784790 39.175903,109.618065 41.537167,111.398476 
	C60.431011,125.644630 78.659317,125.570129 97.276123,111.260986 
	C99.430405,109.605186 101.067505,109.764656 103.089867,111.100616 
	C118.624474,121.362709 128.244949,135.519836 131.351608,153.961700 
	C133.079971,164.221497 131.925827,174.576141 132.315125,184.879822 
	C132.420837,187.677582 131.293457,189.233124 128.680939,189.999573 
	C125.968590,190.795349 123.296509,191.728348 120.303413,192.800659 
	C86.645775,193.000000 53.291542,193.000000 19.468658,193.000000 
M13.383516,157.979752 
	C13.362664,162.973297 13.327698,167.966843 13.323792,172.960403 
	C13.314613,184.694534 13.345417,184.564819 24.795036,186.753616 
	C47.385918,191.072281 70.195076,190.292877 92.952126,189.457489 
	C102.527763,189.105988 112.112961,187.542557 121.457832,184.962830 
	C124.551018,184.108963 125.817780,182.594193 125.703949,179.343002 
	C125.500229,173.524078 125.951126,167.673767 125.586731,161.870575 
	C124.570198,145.681549 118.188797,132.100464 105.642883,121.474968 
	C102.146568,118.513847 99.640213,118.475014 95.665497,120.943939 
	C78.013771,131.908417 60.000835,131.619644 42.485489,120.687515 
	C38.379887,118.125023 36.108673,118.991112 32.994980,121.624702 
	C21.934883,130.979446 15.698690,142.913071 13.383516,157.979752 
z"/>
<path fill="#000000" opacity="1.000000" stroke="none" 
	d="
M192.061462,90.998199 
	C200.208817,102.242928 204.655380,114.330009 204.416489,128.009750 
	C204.291489,135.167038 204.261246,142.332092 204.459198,149.486130 
	C204.547760,152.687210 203.313248,154.274002 200.359161,155.303299 
	C190.535843,158.726151 180.309540,160.168152 170.069885,161.083588 
	C161.477737,161.851761 152.837265,162.448486 144.164062,162.387817 
	C139.792252,162.357208 137.950928,161.571243 137.361938,156.535599 
	C134.970840,136.092270 125.044388,119.857750 107.953415,108.289986 
	C104.474243,105.935165 103.709740,104.151749 106.024986,100.391823 
	C110.653625,92.874962 112.039215,84.409508 111.390129,74.887642 
	C114.285660,76.846275 116.525238,78.427216 118.828766,79.908745 
	C134.601486,90.052948 153.672226,89.387444 168.127975,77.698380 
	C171.733444,74.782967 174.192017,75.009323 177.656342,77.467499 
	C183.007431,81.264450 187.634155,85.743530 192.061462,90.998199 
M115.302307,96.558327 
	C113.325516,100.442841 113.075272,103.428932 117.301773,106.649910 
	C129.752136,116.138206 137.296539,129.030777 141.795410,143.943649 
	C142.921082,147.675110 141.528091,153.098572 145.096573,154.843094 
	C148.282074,156.400391 152.884720,155.147568 156.856369,154.991379 
	C168.823196,154.520782 180.720963,153.534409 192.428589,150.745163 
	C196.237900,149.837631 198.126907,148.237610 197.882324,144.003204 
	C197.547089,138.199234 197.904236,132.359100 197.759155,126.539597 
	C197.343445,109.864960 190.041870,96.632614 177.485977,85.953552 
	C174.638107,83.531364 172.531357,83.276596 169.271286,85.476547 
	C159.294388,92.209122 148.272278,94.857368 136.134766,93.518173 
	C129.798920,92.819099 124.126556,90.194733 117.984756,88.363785 
	C117.069656,91.112320 116.287727,93.460876 115.302307,96.558327 
z"/>
<path fill="#000000" opacity="1.000000" stroke="none" 
	d="
M39.178108,60.308327 
	C48.708366,47.426521 61.289345,42.169605 76.511810,45.122757 
	C91.141174,47.960846 100.732361,57.198452 104.651230,71.677124 
	C109.999435,91.436653 97.314644,111.713493 77.181854,116.053726 
	C57.218758,120.357384 37.556702,107.433678 33.593792,87.725853 
	C31.601032,77.815727 33.841179,68.986351 39.178108,60.308327 
M53.450195,55.857098 
	C43.973228,62.141361 38.752907,71.035370 39.561127,82.328064 
	C40.409996,94.188713 46.929096,102.666771 57.997253,107.488937 
	C75.032425,114.910828 96.612305,103.014519 98.721603,85.115273 
	C100.141228,73.068481 96.093483,63.334866 86.160179,56.644341 
	C75.937241,49.758724 65.008606,49.486069 53.450195,55.857098 
z"/>
<path fill="#000000" opacity="1.000000" stroke="none" 
	d="
M144.762970,9.688917 
	C169.062042,13.456721 182.634979,32.518402 177.273483,54.718166 
	C173.019501,72.332184 155.798340,83.503983 136.326675,81.281403 
	C119.483910,79.358902 105.714752,63.790161 105.651237,46.596783 
	C105.568939,24.317268 121.185516,9.396328 144.762970,9.688917 
M152.167679,18.190138 
	C150.722931,17.822353 149.288559,17.406120 147.831818,17.094429 
	C135.950348,14.552249 123.549614,19.647223 117.018318,29.734058 
	C110.336502,40.053356 110.591743,52.583290 117.686424,62.531937 
	C124.743156,72.427376 137.258438,77.061852 149.001434,74.128059 
	C160.936493,71.146286 170.519897,60.470543 171.622772,48.928322 
	C172.904587,35.513351 166.265900,24.715206 152.167679,18.190138 
z"/>
</svg>